<svg width="40" height="39" viewBox="0 0 40 39" fill="none" xmlns="http://www.w3.org/2000/svg">
<path d="M14.8488 13.3179C17.3632 13.3179 19.7846 13.3179 22.3363 13.3179C22.3363 14.2865 22.3363 15.1619 22.3363 15.6648C24.3665 14.659 26.3408 13.2248 28.5386 12.6847C33.9401 11.3436 38.969 14.8825 39.2857 20.4329C39.6209 26.5049 39.3602 32.6141 39.3602 38.8351C36.8643 38.8351 34.3126 38.8351 31.5188 38.8351C31.5188 37.1588 31.5374 35.5384 31.5188 33.9179C31.5001 30.5839 31.556 27.2313 31.407 23.8973C31.2952 21.327 29.8797 19.9487 27.5887 19.781C25.0184 19.5948 23.0441 20.8986 22.6902 23.4503C22.3735 25.6109 22.4108 27.846 22.3735 30.0438C22.3363 32.9308 22.3549 35.8177 22.3549 38.8537C19.8032 38.8537 17.3819 38.8537 14.8301 38.8537C14.8488 30.3418 14.8488 21.8671 14.8488 13.3179Z" fill="white"/>
<path d="M9.50342 38.8724C6.87722 38.8724 4.3814 38.8724 1.71796 38.8724C1.71796 30.3418 1.71796 21.8671 1.71796 13.2993C4.32553 13.2993 6.82134 13.2993 9.50342 13.2993C9.50342 21.7554 9.50342 30.2114 9.50342 38.8724Z" fill="white"/>
<path d="M10.3229 5.08541C10.3601 7.73025 8.19958 9.92808 5.57338 9.90945C3.05893 9.89083 0.879744 7.74888 0.842493 5.21578C0.805242 2.64544 3.07756 0.335856 5.62925 0.354482C8.1437 0.373108 10.2856 2.53369 10.3229 5.08541Z" fill="white"/>
</svg>
