<svg width="45" height="45" viewBox="0 0 45 45" fill="none" xmlns="http://www.w3.org/2000/svg">
<g clip-path="url(#clip0)">
<path d="M44.5329 13.4714C44.429 11.1136 44.0477 9.49263 43.5015 8.08803C42.938 6.59709 42.0712 5.26224 40.9354 4.15258C39.8258 3.02565 38.4821 2.14998 37.0084 1.59532C35.5957 1.04913 33.9832 0.66784 31.6254 0.563883C29.25 0.451123 28.4959 0.425049 22.4711 0.425049C16.4464 0.425049 15.6923 0.451123 13.3257 0.555079C10.9679 0.659036 9.34688 1.04066 7.94262 1.58652C6.45133 2.14998 5.11649 3.01685 4.00683 4.15258C2.8799 5.26224 2.00457 6.60589 1.44957 8.07957C0.903374 9.49263 0.522088 11.1048 0.418131 13.4626C0.305371 15.838 0.279297 16.5921 0.279297 22.6169C0.279297 28.6416 0.305371 29.3957 0.409327 31.7623C0.513284 34.1202 0.894909 35.7411 1.4411 37.1457C2.00457 38.6367 2.8799 39.9715 4.00683 41.0812C5.11649 42.2081 6.46014 43.0838 7.93381 43.6384C9.34688 44.1846 10.959 44.5659 13.3172 44.6699C15.6835 44.7742 16.4379 44.7999 22.4627 44.7999C28.4874 44.7999 29.2415 44.7742 31.6081 44.6699C33.9659 44.5659 35.5869 44.1846 36.9912 43.6384C39.9734 42.4854 42.3312 40.1276 43.4842 37.1457C44.0301 35.7327 44.4117 34.1202 44.5157 31.7623C44.6196 29.3957 44.6457 28.6416 44.6457 22.6169C44.6457 16.5921 44.6369 15.838 44.5329 13.4714ZM40.5369 31.589C40.4414 33.7561 40.0774 34.9264 39.774 35.7066C39.0283 37.6398 37.494 39.1741 35.5608 39.9197C34.7807 40.2231 33.6019 40.5871 31.4432 40.6823C29.1027 40.7866 28.4007 40.8123 22.4799 40.8123C16.5592 40.8123 15.8484 40.7866 13.5163 40.6823C11.3491 40.5871 10.1789 40.2231 9.39868 39.9197C8.43666 39.5642 7.56099 39.0007 6.85023 38.2639C6.11339 37.5443 5.54992 36.6774 5.19437 35.7154C4.89097 34.9352 4.52695 33.7561 4.4318 31.5978C4.3275 29.2572 4.30177 28.5549 4.30177 22.6342C4.30177 16.7134 4.3275 16.0026 4.4318 13.6709C4.52695 11.5037 4.89097 10.3334 5.19437 9.55324C5.54992 8.59088 6.11339 7.71555 6.85903 7.00445C7.57826 6.26761 8.44513 5.70414 9.40749 5.34893C10.1877 5.04553 11.3667 4.68151 13.5251 4.58602C15.8657 4.48206 16.568 4.45599 22.4884 4.45599C28.418 4.45599 29.1199 4.48206 31.452 4.58602C33.6192 4.68151 34.7895 5.04553 35.5696 5.34893C36.5317 5.70414 37.4073 6.26761 38.1181 7.00445C38.8549 7.72401 39.4184 8.59088 39.774 9.55324C40.0774 10.3334 40.4414 11.5122 40.5369 13.6709C40.6408 16.0114 40.6669 16.7134 40.6669 22.6342C40.6669 28.5549 40.6408 29.2484 40.5369 31.589Z" fill="white"/>
<path d="M22.4716 11.2175C16.1783 11.2175 11.0723 16.3232 11.0723 22.6168C11.0723 28.9104 16.1783 34.0162 22.4716 34.0162C28.7652 34.0162 33.8709 28.9104 33.8709 22.6168C33.8709 16.3232 28.7652 11.2175 22.4716 11.2175ZM22.4716 30.0113C18.3888 30.0113 15.0771 26.6999 15.0771 22.6168C15.0771 18.5338 18.3888 15.2224 22.4716 15.2224C26.5547 15.2224 29.866 18.5338 29.866 22.6168C29.866 26.6999 26.5547 30.0113 22.4716 30.0113Z" fill="white"/>
<path d="M36.9829 10.7669C36.9829 12.2365 35.7913 13.4282 34.3214 13.4282C32.8518 13.4282 31.6602 12.2365 31.6602 10.7669C31.6602 9.29698 32.8518 8.10571 34.3214 8.10571C35.7913 8.10571 36.9829 9.29698 36.9829 10.7669Z" fill="white"/>
</g>
<defs>
<clipPath id="clip0">
<rect width="44.375" height="44.375" fill="white" transform="translate(0.201172 0.425049)"/>
</clipPath>
</defs>
</svg>
