<svg width="25" height="30" viewBox="0 0 25 30" fill="none" xmlns="http://www.w3.org/2000/svg">
<path d="M24.9996 9.37C25.0069 8.93258 24.9192 8.49813 24.7415 8.09147C24.5637 7.68482 24.2994 7.31393 23.9637 7L17.5169 1C17.1707 0.683138 16.7587 0.431634 16.3047 0.26C15.8508 0.0883662 15.3639 0 14.8721 0H4.4471C3.46799 0 2.52899 0.352945 1.83665 0.981192C1.14432 1.60944 0.755371 2.46152 0.755371 3.35V26.65C0.755371 27.5385 1.14432 28.3906 1.83665 29.0188C2.52899 29.6471 3.46799 30 4.4471 30H21.3078C21.7926 30 22.2727 29.9134 22.7206 29.745C23.1685 29.5766 23.5755 29.3299 23.9183 29.0188C24.2611 28.7077 24.533 28.3384 24.7186 27.932C24.9041 27.5255 24.9996 27.0899 24.9996 26.65V9.37ZM21.3189 7.45H17.9137C17.8002 7.45873 17.686 7.44639 17.578 7.41372C17.47 7.38105 17.3705 7.32875 17.2855 7.26C17.1305 7.11948 17.0433 6.92885 17.0431 6.73V3.47L21.3189 7.45ZM21.3189 28H4.4471C4.25132 28.0013 4.05721 27.9673 3.87605 27.8999C3.69489 27.8326 3.5303 27.7332 3.39186 27.6076C3.25342 27.4819 3.14389 27.3326 3.06965 27.1682C2.9954 27.0038 2.95792 26.8277 2.95939 26.65V3.35C2.95792 3.17234 2.9954 2.9962 3.06965 2.83181C3.14389 2.66742 3.25342 2.51806 3.39186 2.39244C3.5303 2.26681 3.69489 2.16742 3.87605 2.10005C4.05721 2.03268 4.25132 1.99867 4.4471 2H14.8611V6.73C14.8611 7.09198 14.9398 7.4504 15.0928 7.78469C15.2458 8.11899 15.47 8.4226 15.7526 8.67809C16.0352 8.93358 16.3706 9.13593 16.7395 9.27355C17.1085 9.41116 17.5037 9.48132 17.9026 9.48L22.7956 9.43V26.65C22.797 26.8277 22.7595 27.0038 22.6853 27.1682C22.6111 27.3326 22.5015 27.4819 22.3631 27.6076C22.2246 27.7332 22.0601 27.8326 21.8789 27.8999C21.6977 27.9673 21.5036 28.0013 21.3078 28H21.3189Z" fill="black"/>
<path d="M17.2855 12.24H8.46944C8.17717 12.24 7.89687 12.3453 7.6902 12.5329C7.48354 12.7204 7.36743 12.9748 7.36743 13.24C7.36743 13.5052 7.48354 13.7596 7.6902 13.9471C7.89687 14.1346 8.17717 14.24 8.46944 14.24H17.2855C17.5778 14.24 17.8581 14.1346 18.0648 13.9471C18.2714 13.7596 18.3875 13.5052 18.3875 13.24C18.3875 12.9748 18.2714 12.7204 18.0648 12.5329C17.8581 12.3453 17.5778 12.24 17.2855 12.24Z" fill="black"/>
<path d="M17.2855 18.77H8.46944C8.17717 18.77 7.89687 18.8754 7.6902 19.0629C7.48354 19.2504 7.36743 19.5048 7.36743 19.77C7.36743 20.0352 7.48354 20.2896 7.6902 20.4771C7.89687 20.6647 8.17717 20.77 8.46944 20.77H17.2855C17.5778 20.77 17.8581 20.6647 18.0648 20.4771C18.2714 20.2896 18.3875 20.0352 18.3875 19.77C18.3875 19.5048 18.2714 19.2504 18.0648 19.0629C17.8581 18.8754 17.5778 18.77 17.2855 18.77Z" fill="black"/>
</svg>
