<svg width="300" height="215" viewBox="0 0 300 215" fill="none" xmlns="http://www.w3.org/2000/svg">
<path d="M115.034 93.0948H80.2173C78.4598 93.0955 76.733 92.6679 75.2105 91.8548C73.6881 91.0417 72.4236 89.8719 71.5441 88.4629C70.6647 87.0539 70.2013 85.4554 70.2006 83.828C70.1998 82.2006 70.6617 80.6018 71.5398 79.1921L117.969 4.64245C118.848 3.2314 120.113 2.05949 121.636 1.24456C123.159 0.429618 124.887 0.00037993 126.647 0H161.463C163.22 0.000639742 164.946 0.429367 166.468 1.24314C167.99 2.0569 169.254 3.22707 170.133 4.63613C171.012 6.04519 171.475 7.64355 171.475 9.27072C171.476 10.8979 171.014 12.4966 170.137 13.9063L123.707 88.4559C122.828 89.866 121.564 91.0371 120.042 91.8514C118.519 92.6657 116.792 93.0946 115.034 93.0948Z" fill="#EE3A88"/>
<path d="M201.657 139.569H108.961C107.197 139.571 105.464 139.142 103.936 138.325C102.408 137.508 101.141 136.332 100.262 134.916C99.3826 133.499 98.9231 131.893 98.9297 130.26C98.9363 128.626 99.4087 127.023 100.299 125.613L117.908 97.6846C118.791 96.2855 120.054 95.1248 121.572 94.3183C123.09 93.5118 124.809 93.0876 126.559 93.0879H219.099C220.857 93.089 222.584 93.5185 224.105 94.3331C225.627 95.1478 226.891 96.3189 227.769 97.7288C228.647 99.1387 229.109 100.738 229.108 102.365C229.108 103.993 228.645 105.592 227.765 107.001L210.319 134.93C209.441 136.338 208.179 137.508 206.659 138.322C205.138 139.137 203.413 139.566 201.657 139.569Z" fill="#EE3A88"/>
<path d="M2.68139 171.139H5.6586C6.00883 171.139 6.35561 171.203 6.67896 171.327C7.0023 171.452 7.29581 171.635 7.54258 171.865C7.78935 172.095 7.98451 172.368 8.11681 172.668C8.24911 172.968 8.31593 173.29 8.31343 173.614V204.243C8.31091 204.569 8.37835 204.892 8.51182 205.193C8.6453 205.495 8.84215 205.769 9.09094 205.999C9.33973 206.229 9.63549 206.412 9.96103 206.535C10.2866 206.659 10.6354 206.721 10.9872 206.719H25.4295C25.7798 206.717 26.127 206.779 26.4513 206.901C26.7756 207.024 27.0705 207.204 27.319 207.433C27.5676 207.661 27.7648 207.933 27.8994 208.232C28.034 208.532 28.1033 208.853 28.1033 209.177V211.509C28.1058 211.835 28.0384 212.158 27.9049 212.459C27.7715 212.761 27.5746 213.034 27.3258 213.265C27.077 213.495 26.7813 213.677 26.4557 213.801C26.1302 213.925 25.7814 213.987 25.4295 213.985H2.6738C1.96466 213.985 1.28458 213.724 0.783142 213.26C0.281708 212.795 0 212.166 0 211.509V173.583C0.00198023 173.259 0.0729978 172.939 0.208966 172.641C0.344934 172.342 0.543178 172.072 0.792321 171.845C1.04146 171.618 1.33659 171.438 1.66077 171.317C1.98495 171.196 2.33179 171.135 2.68139 171.139Z" fill="#EE3A88"/>
<path d="M44.2243 171.139H69.6728C70.0246 171.136 70.3735 171.199 70.699 171.322C71.0246 171.446 71.3203 171.628 71.5691 171.858C71.8179 172.089 72.0147 172.363 72.1482 172.664C72.2817 172.966 72.3491 173.289 72.3466 173.614V175.721C72.3466 176.046 72.2773 176.367 72.1427 176.666C72.0081 176.965 71.8109 177.237 71.5623 177.466C71.3138 177.694 71.0189 177.875 70.6946 177.997C70.3703 178.12 70.023 178.182 69.6728 178.179H52.5453C51.8427 178.184 51.1704 178.445 50.6736 178.905C50.1767 179.365 49.8954 179.987 49.8905 180.638V186.52C49.8905 187.172 50.1702 187.797 50.6681 188.258C51.1659 188.719 51.8412 188.978 52.5453 188.978H68.133C68.4832 188.976 68.8305 189.038 69.1548 189.16C69.4791 189.283 69.774 189.463 70.0225 189.692C70.2711 189.92 70.4683 190.192 70.6029 190.491C70.7375 190.791 70.8068 191.112 70.8068 191.436V193.543C70.8093 193.869 70.7419 194.192 70.6084 194.493C70.4749 194.795 70.2781 195.069 70.0293 195.299C69.7805 195.529 69.4847 195.712 69.1592 195.835C68.8337 195.959 68.4848 196.021 68.133 196.019H52.5453C51.8427 196.023 51.1704 196.284 50.6736 196.744C50.1767 197.204 49.8954 197.827 49.8905 198.477V204.141C49.888 204.466 49.9548 204.787 50.0871 205.088C50.2194 205.388 50.4146 205.661 50.6613 205.891C50.9081 206.121 51.2016 206.304 51.525 206.428C51.8483 206.553 52.1951 206.617 52.5453 206.617H69.6728C70.023 206.615 70.3703 206.677 70.6946 206.799C71.0189 206.922 71.3138 207.102 71.5623 207.331C71.8109 207.559 72.0081 207.831 72.1427 208.131C72.2773 208.43 72.3466 208.751 72.3466 209.075V211.407C72.3491 211.733 72.2817 212.056 72.1482 212.357C72.0147 212.659 71.8179 212.933 71.5691 213.163C71.3203 213.393 71.0246 213.576 70.699 213.699C70.3735 213.823 70.0246 213.885 69.6728 213.883H44.2243C43.5185 213.878 42.8432 213.615 42.3459 213.152C41.8485 212.688 41.5694 212.061 41.5695 211.407V173.481C41.6017 172.849 41.8955 172.253 42.3899 171.817C42.8844 171.381 43.5413 171.138 44.2243 171.139Z" fill="#EE3A88"/>
<path d="M124.768 173.614V211.541C124.768 212.194 124.489 212.821 123.991 213.285C123.494 213.749 122.819 214.012 122.113 214.016H117.964C117.501 214.016 117.046 213.905 116.644 213.693C116.242 213.481 115.906 213.176 115.669 212.808L102.016 191.612C101.725 191.133 101.27 190.758 100.723 190.547C100.176 190.336 99.5676 190.3 98.996 190.446C98.4244 190.592 97.922 190.911 97.5688 191.352C97.2157 191.793 97.0321 192.331 97.0474 192.879V211.541C97.0474 212.197 96.7657 212.827 96.2642 213.291C95.7628 213.756 95.0827 214.016 94.3736 214.016H91.7187C91.0096 214.016 90.3295 213.756 89.8281 213.291C89.3266 212.827 89.0449 212.197 89.0449 211.541V173.614C89.0424 173.289 89.1098 172.966 89.2433 172.664C89.3768 172.363 89.5737 172.089 89.8224 171.858C90.0712 171.628 90.367 171.446 90.6925 171.322C91.0181 171.199 91.3669 171.136 91.7187 171.139H95.7882C96.2497 171.138 96.7035 171.248 97.1055 171.458C97.5075 171.668 97.8442 171.97 98.0828 172.336L111.797 193.462C112.089 193.94 112.544 194.313 113.092 194.523C113.639 194.733 114.246 194.767 114.817 194.621C115.388 194.474 115.889 194.155 116.242 193.714C116.594 193.273 116.777 192.736 116.761 192.188V173.614C116.759 173.289 116.826 172.966 116.96 172.664C117.093 172.363 117.29 172.089 117.539 171.858C117.788 171.628 118.083 171.446 118.409 171.322C118.735 171.199 119.083 171.136 119.435 171.139H122.09C122.442 171.136 122.791 171.198 123.117 171.321C123.443 171.445 123.74 171.627 123.989 171.857C124.238 172.088 124.435 172.362 124.569 172.663C124.703 172.965 124.77 173.288 124.768 173.614Z" fill="#EE3A88"/>
<path d="M143.412 173.614C143.41 173.289 143.477 172.966 143.61 172.664C143.744 172.363 143.941 172.089 144.19 171.858C144.438 171.628 144.734 171.446 145.06 171.322C145.385 171.199 145.734 171.136 146.086 171.139H156.845C172.604 171.139 180.925 178.963 180.925 192.886C180.925 206.231 172.342 214.002 156.781 214.002H146.086C145.377 214.002 144.697 213.741 144.195 213.277C143.694 212.813 143.412 212.183 143.412 211.527V173.614ZM155.962 206.933C166.202 206.933 172.604 203.264 172.604 192.535C172.604 182.376 168.113 178.187 156.717 178.187H154.407C153.704 178.191 153.032 178.452 152.535 178.912C152.038 179.372 151.757 179.994 151.752 180.645V204.422C151.752 205.076 152.031 205.703 152.528 206.167C153.026 206.631 153.701 206.893 154.407 206.898L155.962 206.933Z" fill="#EE3A88"/>
<path d="M198.967 171.139H224.42C224.77 171.139 225.117 171.203 225.44 171.327C225.763 171.452 226.057 171.635 226.304 171.865C226.55 172.095 226.746 172.368 226.878 172.668C227.01 172.968 227.077 173.29 227.075 173.614V175.721C227.075 176.373 226.795 176.999 226.297 177.46C225.799 177.921 225.124 178.18 224.42 178.18H207.292C206.942 178.177 206.595 178.239 206.27 178.362C205.946 178.484 205.651 178.665 205.403 178.893C205.154 179.122 204.957 179.394 204.822 179.693C204.688 179.992 204.618 180.313 204.618 180.638V186.52C204.618 186.844 204.688 187.165 204.822 187.465C204.957 187.764 205.154 188.036 205.403 188.264C205.651 188.493 205.946 188.673 206.27 188.796C206.595 188.918 206.942 188.98 207.292 188.978H222.876C223.58 188.978 224.255 189.237 224.753 189.698C225.251 190.159 225.531 190.784 225.531 191.436V193.543C225.533 193.867 225.467 194.189 225.334 194.489C225.202 194.79 225.007 195.063 224.76 195.293C224.513 195.523 224.22 195.706 223.896 195.83C223.573 195.955 223.226 196.019 222.876 196.019H207.292C206.942 196.017 206.595 196.078 206.27 196.201C205.946 196.323 205.651 196.504 205.403 196.733C205.154 196.961 204.957 197.233 204.822 197.532C204.688 197.832 204.618 198.153 204.618 198.477V204.141C204.616 204.467 204.683 204.79 204.817 205.092C204.95 205.393 205.147 205.667 205.396 205.897C205.645 206.128 205.94 206.31 206.266 206.434C206.591 206.557 206.94 206.62 207.292 206.617H224.42C225.124 206.617 225.799 206.876 226.297 207.337C226.795 207.798 227.075 208.423 227.075 209.075V211.407C227.077 211.731 227.01 212.053 226.878 212.353C226.746 212.654 226.55 212.927 226.304 213.157C226.057 213.387 225.763 213.569 225.44 213.694C225.117 213.819 224.77 213.883 224.42 213.883H198.967C198.617 213.883 198.27 213.819 197.947 213.694C197.624 213.569 197.33 213.387 197.083 213.157C196.837 212.927 196.641 212.654 196.509 212.353C196.377 212.053 196.31 211.731 196.312 211.407V173.481C196.345 172.849 196.639 172.253 197.133 171.817C197.627 171.381 198.284 171.138 198.967 171.139Z" fill="#EE3A88"/>
<path d="M246.472 171.139H273.954C274.304 171.139 274.651 171.203 274.974 171.327C275.297 171.452 275.591 171.635 275.838 171.865C276.085 172.095 276.28 172.368 276.412 172.668C276.544 172.968 276.611 173.29 276.609 173.614V175.721C276.609 176.373 276.329 176.999 275.831 177.46C275.333 177.921 274.658 178.18 273.954 178.18H254.793C254.088 178.179 253.41 178.438 252.909 178.898C252.409 179.359 252.125 179.984 252.12 180.638V186.52C252.12 186.844 252.189 187.165 252.324 187.465C252.458 187.764 252.655 188.036 252.904 188.264C253.152 188.493 253.447 188.673 253.772 188.796C254.096 188.918 254.443 188.98 254.793 188.978H271.071C271.777 188.978 272.454 189.236 272.955 189.697C273.456 190.157 273.74 190.783 273.745 191.436V193.543C273.745 194.2 273.463 194.829 272.962 195.294C272.461 195.758 271.78 196.019 271.071 196.019H254.793C254.088 196.019 253.41 196.277 252.909 196.738C252.409 197.198 252.125 197.823 252.12 198.477V211.425C252.122 211.749 252.055 212.07 251.923 212.371C251.791 212.671 251.596 212.944 251.349 213.174C251.102 213.404 250.808 213.587 250.485 213.712C250.162 213.836 249.815 213.9 249.465 213.9H246.488C245.782 213.896 245.107 213.633 244.609 213.169C244.112 212.705 243.833 212.078 243.833 211.425V173.498C243.86 172.866 244.15 172.268 244.641 171.828C245.133 171.389 245.789 171.142 246.472 171.139Z" fill="#EE3A88"/>
<path d="M293.654 171.139H296.627C296.979 171.136 297.328 171.199 297.653 171.322C297.979 171.446 298.275 171.628 298.523 171.858C298.772 172.089 298.969 172.363 299.103 172.664C299.236 172.966 299.303 173.289 299.301 173.614V211.541C299.303 211.866 299.236 212.189 299.103 212.491C298.969 212.792 298.772 213.066 298.523 213.296C298.275 213.527 297.979 213.709 297.653 213.833C297.328 213.956 296.979 214.019 296.627 214.016H293.654C292.945 214.016 292.264 213.755 291.763 213.291C291.262 212.827 290.98 212.197 290.98 211.541V173.614C290.977 173.289 291.045 172.966 291.178 172.664C291.312 172.363 291.509 172.089 291.757 171.858C292.006 171.628 292.302 171.446 292.628 171.322C292.953 171.199 293.302 171.136 293.654 171.139Z" fill="#EE3A88"/>
</svg>
