<svg width="42" height="47" viewBox="0 0 42 47" fill="none" xmlns="http://www.w3.org/2000/svg">
<path d="M13.4544 46.9626C14.3298 46.6087 14.6092 45.9382 14.5906 45.0256C14.5533 43.3306 14.5719 41.6543 14.5719 39.8849C14.1435 39.9594 13.8269 40.0152 13.4916 40.0525C11.8153 40.276 10.139 40.2015 8.49996 39.829C6.63739 39.4006 5.27772 38.3203 4.49544 36.5136C4.04842 35.4706 3.47102 34.4648 2.83775 33.5335C2.42799 32.9561 1.77609 32.5464 1.23594 32.0435C0.882056 31.7268 0.490916 31.4102 0.192905 31.0377C-0.142357 30.6279 -0.0306027 30.4044 0.509542 30.2554C1.44083 30.0133 2.31623 30.274 3.15439 30.6838C4.40231 31.2984 5.37084 32.2297 6.07862 33.4404C6.80502 34.6883 7.77356 35.7127 9.15186 36.1784C10.9399 36.793 12.7094 36.4764 14.4229 35.7686C14.5161 35.7313 14.6278 35.5823 14.6464 35.4706C14.8886 34.0737 15.4101 32.7885 16.4717 31.7454C15.2425 31.5219 14.069 31.3543 12.9329 31.0749C9.85963 30.2926 7.12166 28.933 5.29634 26.2136C3.99254 24.2766 3.35927 22.0787 3.07989 19.7691C2.85638 17.8507 2.78188 15.9323 3.24752 14.0324C3.65728 12.2816 4.45819 10.7171 5.6316 9.35739C5.89236 9.05938 5.94824 8.81725 5.81786 8.42611C4.9797 5.98615 5.29634 3.60206 6.17175 1.25523C6.22762 1.10622 6.46976 0.975841 6.65602 0.957215C7.69905 0.826835 8.66759 1.12485 9.58025 1.55324C11.0517 2.24239 12.5045 2.98741 13.9387 3.75107C14.3484 3.97457 14.6837 4.04908 15.1307 3.9187C19.694 2.78253 24.2387 2.78253 28.8019 3.9187C29.2676 4.03045 29.6028 3.95595 29.994 3.71381C31.8193 2.5404 33.7191 1.55324 35.8424 1.01309C35.8797 0.994466 35.917 0.994467 35.9542 0.975841C37.407 0.67783 37.6491 0.845461 38.0775 2.27964C38.6922 4.40296 38.8039 6.52629 38.0589 8.63099C38.003 8.78 38.0775 9.05938 38.1893 9.18976C40.6851 12.0395 41.2625 15.4107 40.9273 19.0427C40.7038 21.3337 40.1636 23.5129 39.0461 25.5431C37.8727 27.6664 36.0287 29.0075 33.9054 30.0319C31.9497 30.9818 29.8636 31.3543 27.7403 31.6337C27.6658 31.6523 27.5913 31.6523 27.4423 31.6896C27.6099 31.8758 27.7589 32.0248 27.8893 32.1925C28.7833 33.2541 29.2676 34.5207 29.3235 35.8803C29.4166 38.935 29.4166 41.9896 29.4166 45.0442C29.4166 45.9382 29.6587 46.5901 30.5155 46.944C24.7974 46.9626 19.1352 46.9626 13.4544 46.9626Z" fill="white"/>
</svg>
