<svg width="42" height="34" viewBox="0 0 42 34" fill="none" xmlns="http://www.w3.org/2000/svg">
<path d="M28.8865 9.66223C28.812 9.86711 28.7189 10.0534 28.6444 10.2583C25.6829 17.7644 22.7214 25.2892 19.7786 32.7953C19.6854 33.0188 19.5923 33.112 19.3502 33.0933C19.1267 33.0747 18.8845 33.0747 18.661 33.0933C18.4561 33.112 18.363 33.0375 18.2699 32.8512C17.3386 30.8024 16.3887 28.7349 15.4574 26.6861C12.8871 21.0984 10.3353 15.5107 7.765 9.92299C7.72775 9.84849 7.69049 9.77399 7.59737 9.69948C7.59737 9.79261 7.59737 9.90437 7.59737 9.99749C7.59737 15.0264 7.59737 20.0367 7.59737 25.0657C7.59737 25.4382 7.59737 25.8293 7.67187 26.2018C7.72775 26.4812 7.89538 26.7606 8.08163 26.9841C9.45993 28.679 10.8569 30.374 12.2724 32.0503C12.5332 32.3669 12.5332 32.6836 12.5145 33.0561C8.4169 33.0561 4.33787 33.0561 0.240224 33.0561C0.202973 32.6836 0.202973 32.3669 0.482358 32.0503C1.87928 30.3926 3.25758 28.6977 4.65451 27.0214C5.04565 26.5557 5.21328 26.0156 5.13878 25.4009C5.12015 25.2892 5.12015 25.1774 5.12015 25.0657C5.12015 19.1241 5.12015 13.2011 5.12015 7.25952C5.12015 6.60762 4.95252 6.0861 4.5055 5.58321C3.33209 4.22354 2.21455 2.80798 1.04113 1.44831C0.761744 1.11305 0.68724 0.796411 0.761743 0.386646C0.836245 0.386646 0.929374 0.36802 1.00388 0.36802C4.82214 0.36802 8.6404 0.36802 12.4587 0.36802C12.6635 0.36802 12.7567 0.442523 12.8312 0.610154C15.8299 7.20364 18.8286 13.7785 21.846 20.372C21.8833 20.4465 21.9205 20.521 21.9764 20.6328C22.0881 20.3347 22.1999 20.074 22.3117 19.8319C24.882 13.4246 27.4523 7.01739 30.0227 0.59153C30.0786 0.442524 30.1344 0.349396 30.3393 0.349396C33.9899 0.349396 37.6592 0.349396 41.3098 0.349396C41.3843 0.349396 41.4402 0.349394 41.5333 0.36802C41.5706 0.740534 41.5892 1.05717 41.254 1.35518C40.2109 2.30509 39.2051 3.29225 38.1994 4.26079C37.9758 4.46567 37.8641 4.72643 37.8827 5.04307C37.8827 5.19207 37.9013 5.34108 37.9013 5.50871C37.9013 12.9962 37.9013 20.4837 37.9013 27.9713C37.9013 28.1389 37.9013 28.2879 37.8827 28.4555C37.8827 28.7722 37.9758 29.0143 38.1994 29.2378C39.2424 30.2622 40.2854 31.2866 41.3285 32.2924C41.5892 32.5532 41.4216 32.8326 41.4775 33.1306C36.0574 33.1306 30.6746 33.1306 25.2918 33.1306C25.2359 32.7394 25.2545 32.4228 25.5898 32.1248C26.6142 31.1935 27.5827 30.2064 28.5885 29.2378C28.8306 28.9957 28.961 28.7536 28.961 28.3997C28.961 22.1787 28.961 15.9391 28.961 9.71811C28.961 9.69948 28.961 9.66223 28.961 9.64361C28.9238 9.66223 28.9051 9.66223 28.8865 9.66223Z" fill="white"/>
</svg>
