<svg width="52" height="38" viewBox="0 0 52 38" fill="none" xmlns="http://www.w3.org/2000/svg">
<path d="M22.0463 37.5136C21.9532 37.495 21.86 37.4764 21.7669 37.4578C21.6738 37.4019 21.5806 37.346 21.4875 37.3087C21.3758 37.2715 21.264 37.2342 21.1336 37.197C20.5003 36.6196 19.5691 36.2098 19.3456 35.3903C18.7868 33.2856 17.0173 32.7827 15.3969 32.0377C11.858 30.1937 8.33778 28.3684 4.7989 26.5245C1.35315 24.6992 -0.490796 20.3408 0.60812 16.597C0.999259 15.256 1.74429 14.1757 3.02946 13.5424C11.113 9.51925 19.1966 5.53336 27.2615 1.49159C28.6211 0.802437 29.9063 0.802436 31.266 1.45433C36.8537 4.13643 42.4414 6.7999 48.0105 9.46337C48.5693 9.72413 49.2211 9.91039 49.2398 10.7113C49.2398 11.5122 48.5879 11.6985 48.0291 11.9778C40.1691 16.0755 32.2904 20.1545 24.4304 24.2708C23.1824 24.9227 22.0649 25.0158 20.7611 24.2894C18.3025 22.9111 15.7508 21.6818 13.2177 20.3966C13.0873 20.3221 12.9383 20.2476 12.8079 20.1545C12.6776 19.931 12.4913 19.8565 12.2305 19.8565C12.0443 19.7634 11.858 19.6702 11.6531 19.5585C10.8709 18.9066 9.97684 18.4968 9.02693 18.1616L8.98968 18.1429C8.69167 17.8077 8.31915 17.6214 7.87214 17.5655C7.68588 17.4538 7.481 17.3607 7.29474 17.2489C7.01535 16.8764 6.58696 16.7646 6.15857 16.6529C6.02819 16.4294 5.82331 16.3735 5.58118 16.3735C5.00378 15.8892 4.40776 15.5912 3.83036 16.3735C2.63832 17.8077 2.63832 19.8751 3.84899 21.8681C3.90487 22.2406 4.01662 22.5572 4.37051 22.7621C4.48226 22.8552 4.59402 22.967 4.70577 23.0601L4.68714 23.0415C4.78027 23.1346 4.89203 23.2464 4.98515 23.3395C5.09691 23.414 5.20866 23.5071 5.32042 23.5816C5.39492 23.6375 5.46942 23.712 5.54393 23.7679C5.63705 23.8051 5.73018 23.8424 5.84194 23.8796C5.97232 24.1218 6.1772 24.1777 6.41933 24.1777C6.60559 24.2708 6.79185 24.3639 6.9781 24.457C7.08986 24.5315 7.18298 24.5874 7.29474 24.6619C7.35062 24.7364 7.44374 24.7737 7.53687 24.755C7.64863 24.8295 7.76038 24.8854 7.87214 24.9599C11.2993 26.7852 14.745 28.5919 18.1721 30.4359C18.7495 30.7525 19.0848 30.7711 19.5877 30.1565C21.4689 27.8842 24.1324 27.6979 26.4233 29.6722C26.9821 30.1565 27.3546 30.1379 27.9134 29.8399C32.4022 27.4371 36.8909 25.0344 41.3984 22.6876C42.1434 22.2965 42.0503 21.7936 42.013 21.1417C41.9013 19.1301 42.758 17.6028 44.5461 16.6715C46.241 15.7961 47.8987 16.0196 49.426 17.1371C51.3072 18.5154 51.7729 21.1603 50.5622 23.2091C49.3702 25.2207 46.7998 25.9843 44.5461 24.9227C43.9687 24.6433 43.5589 24.5502 42.9815 24.8854C38.6045 27.2881 34.2275 29.6722 29.8318 32.0563C28.975 32.3729 28.0065 32.5592 27.8389 33.714C27.8202 33.9002 27.783 34.0865 27.7644 34.2728C27.4477 34.608 27.2987 34.9992 27.2428 35.4462C27.1683 35.5393 27.0938 35.6324 27.038 35.7256C26.9635 35.7814 26.9262 35.8559 26.9262 35.9491C25.5852 37.3088 23.9088 37.7185 22.0463 37.5136ZM23.2942 31.4789C22.456 31.6279 21.8041 32.0004 21.7855 32.9317C21.7669 33.9002 22.3443 34.4404 23.2942 34.4776C24.2627 34.5149 24.6166 33.8071 24.6725 32.9876C24.747 32.0749 24.1137 31.6652 23.2942 31.4789ZM46.6508 22.222C47.5821 22.2033 48.0664 21.7004 48.0664 20.7878C48.0664 19.8565 47.5076 19.335 46.6322 19.335C45.7381 19.335 45.1794 19.8937 45.198 20.7878C45.198 21.6818 45.7009 22.222 46.6508 22.222Z" fill="white"/>
</svg>
