<svg width="24" height="45" viewBox="0 0 24 45" fill="none" xmlns="http://www.w3.org/2000/svg">
<path d="M22.4254 24.7947C22.7606 22.15 23.0959 19.5611 23.4497 16.9164C23.2821 16.9164 23.1331 16.8978 23.0027 16.8978C20.6747 16.8978 18.3466 16.8978 16.0185 16.8978C15.6833 16.8978 15.5901 16.8047 15.5901 16.4694C15.6274 14.6814 15.5715 12.8748 15.646 11.0869C15.7205 9.16852 16.7262 8.18141 18.6446 8.06966C20.1346 7.99517 21.6432 8.03241 23.1517 8.01379C23.3007 8.01379 23.4684 8.01379 23.636 8.01379C23.636 5.64845 23.636 3.32036 23.636 0.95502C23.0214 0.899146 22.4068 0.824648 21.7921 0.787399C20.2836 0.731525 18.7563 0.6384 17.2477 0.657024C15.2735 0.675649 13.3924 1.12264 11.7162 2.18425C9.46265 3.59973 8.21479 5.6857 7.73055 8.25591C7.54431 9.20577 7.46981 10.1929 7.45119 11.18C7.41394 12.9307 7.43256 14.6628 7.43256 16.4135C7.43256 16.5625 7.43256 16.6929 7.43256 16.8792C5.16036 16.8792 2.9254 16.8792 0.653198 16.8792C0.653198 19.5239 0.653198 22.1313 0.653198 24.7947C2.90678 24.7947 5.14173 24.7947 7.39531 24.7947C7.39531 31.4809 7.39531 38.1113 7.39531 44.7417C7.7678 44.7604 8.15892 44.7604 8.53141 44.7604C10.9526 44.7604 13.3179 44.4624 15.5715 43.9036C15.5715 37.534 15.5715 31.1829 15.5715 24.7947C17.881 24.7947 20.1346 24.7947 22.4254 24.7947Z" fill="white"/>
</svg>
