<svg width="52" height="37" viewBox="0 0 52 37" fill="none" xmlns="http://www.w3.org/2000/svg">
<path d="M22.0464 36.8748C21.9533 36.8562 21.8602 36.8375 21.767 36.8189C21.6739 36.763 21.5808 36.7072 21.4877 36.6699C21.3759 36.6327 21.2642 36.5954 21.1338 36.5582C20.5005 35.9808 19.5692 35.571 19.3457 34.7515C18.7869 32.6468 17.0175 32.1439 15.3971 31.3988C11.8582 29.5549 8.33793 27.7296 4.79905 25.8857C1.3533 24.0603 -0.490643 19.7019 0.608272 15.9582C0.999411 14.6171 1.74444 13.5368 3.02961 12.9036C11.1132 8.88041 19.1967 4.89452 27.2616 0.852747C28.6213 0.163597 29.9065 0.163597 31.2661 0.815495C36.8539 3.49759 42.4416 6.16106 48.0106 8.82453C48.5694 9.08529 49.2213 9.27155 49.2399 10.0725C49.2399 10.8734 48.588 11.0596 48.0293 11.339C40.1692 15.4366 32.2906 19.5157 24.4305 23.6319C23.1826 24.2838 22.0651 24.377 20.7613 23.6506C18.3027 22.2723 15.751 21.043 13.2179 19.7578C13.0875 19.6833 12.9385 19.6088 12.8081 19.5157C12.6777 19.2922 12.4915 19.2177 12.2307 19.2177C12.0444 19.1245 11.8582 19.0314 11.6533 18.9197C10.871 18.2678 9.97699 17.858 9.02708 17.5227L8.98983 17.5041C8.69182 17.1688 8.3193 16.9826 7.87229 16.9267C7.68603 16.8149 7.48115 16.7218 7.29489 16.6101C7.01551 16.2375 6.58712 16.1258 6.15873 16.014C6.02835 15.7905 5.82346 15.7347 5.58133 15.7347C5.00393 15.2504 4.40791 14.9524 3.83052 15.7347C2.63847 17.1688 2.63847 19.2363 3.84914 21.2292C3.90502 21.6017 4.01677 21.9184 4.37066 22.1233C4.48241 22.2164 4.59417 22.3281 4.70592 22.4213L4.6873 22.4026C4.78043 22.4958 4.89218 22.6075 4.98531 22.7007C5.09706 22.7752 5.20882 22.8683 5.32057 22.9428C5.39507 22.9987 5.46958 23.0732 5.54408 23.129C5.63721 23.1663 5.73033 23.2036 5.84209 23.2408C5.97247 23.4829 6.17735 23.5388 6.41949 23.5388C6.60574 23.6319 6.792 23.7251 6.97826 23.8182C7.09001 23.8927 7.18314 23.9486 7.29489 24.0231C7.35077 24.0976 7.4439 24.1348 7.53703 24.1162C7.64878 24.1907 7.76053 24.2466 7.87229 24.3211C11.2994 26.1464 14.7452 27.9531 18.1723 29.797C18.7497 30.1137 19.0849 30.1323 19.5878 29.5177C21.469 27.2453 24.1325 27.0591 26.4235 29.0334C26.9822 29.5177 27.3548 29.499 27.9135 29.201C32.4023 26.7983 36.8911 24.3956 41.3985 22.0488C42.1435 21.6576 42.0504 21.1547 42.0132 20.5028C41.9014 18.4913 42.7582 16.964 44.5463 16.0327C46.2412 15.1573 47.8989 15.3808 49.4262 16.4983C51.3074 17.8766 51.773 20.5215 50.5624 22.5703C49.3703 24.5819 46.8 25.3455 44.5463 24.2838C43.9689 24.0045 43.5591 23.9113 42.9817 24.2466C38.6047 26.6493 34.2276 29.0334 29.832 31.4175C28.9752 31.7341 28.0066 31.9204 27.839 33.0752C27.8204 33.2614 27.7831 33.4477 27.7645 33.6339C27.4479 33.9692 27.2989 34.3603 27.243 34.8073C27.1685 34.9005 27.094 34.9936 27.0381 35.0867C26.9636 35.1426 26.9264 35.2171 26.9264 35.3102C25.5853 36.6699 23.909 37.0797 22.0464 36.8748ZM23.2944 30.8401C22.4562 30.9891 21.8043 31.3616 21.7857 32.2929C21.767 33.2614 22.3444 33.8016 23.2944 33.8388C24.2629 33.8761 24.6168 33.1683 24.6727 32.3488C24.7472 31.4361 24.1139 31.0263 23.2944 30.8401ZM46.651 21.5831C47.5822 21.5645 48.0665 21.0616 48.0665 20.1489C48.0665 19.2177 47.5077 18.6961 46.6323 18.6961C45.7383 18.6961 45.1795 19.2549 45.1982 20.1489C45.1982 21.043 45.701 21.5831 46.651 21.5831Z" fill="white"/>
</svg>
