<svg width="41" height="34" viewBox="0 0 41 34" fill="none" xmlns="http://www.w3.org/2000/svg">
<path d="M5.34609 19.2562C4.20992 18.8836 3.07375 18.5298 1.93759 18.1572C1.69545 18.0827 1.47194 17.9896 1.24844 17.8965C0.317153 17.4308 0.168147 16.4251 0.9318 15.7173C1.0063 15.6428 1.09943 15.5683 1.19256 15.4938C7.46941 12.6254 13.8394 9.92469 20.1721 7.20535C24.9403 5.15652 29.7457 3.14495 34.607 1.31963C35.5756 0.965745 36.5627 0.64911 37.5871 0.425602C39.2448 0.0903395 40.2506 0.872618 40.232 2.54893C40.2134 4.20661 39.9154 5.82704 39.6918 7.44748C38.7047 14.8046 37.3078 22.0873 36.0785 29.4071C35.9295 30.2639 35.7432 31.1207 35.3148 31.903C34.6629 33.0764 33.6385 33.5607 32.3347 33.244C31.6083 33.0764 30.9378 32.7411 30.3231 32.3314C26.7843 29.9473 23.2454 27.5632 19.7251 25.1791C19.3153 24.8997 18.9242 24.6017 18.5517 24.2665C17.49 23.2979 17.4342 22.4039 18.3468 21.305C18.9987 20.5227 19.7624 19.8335 20.5074 19.1444C23.6738 16.1829 26.7843 13.1842 29.8575 10.1296C30.0065 9.9992 30.1369 9.85019 30.2486 9.70119C30.4721 9.4218 30.4721 9.12379 30.23 8.8444C30.0065 8.56502 29.7085 8.49051 29.3918 8.65815C29.0938 8.82578 28.7958 9.01204 28.5164 9.19829C23.7669 12.346 18.9801 15.4193 14.2864 18.6601C12.07 20.1874 9.68587 20.5972 7.0969 19.7777C6.53813 19.5728 5.94211 19.4238 5.34609 19.2562Z" fill="#FDFEFE"/>
</svg>
