<svg width="35" height="29" viewBox="0 0 35 29" fill="none" xmlns="http://www.w3.org/2000/svg">
<path d="M0.559082 25.4514C3.65094 27.4444 7.33883 28.5991 11.2875 28.5991C24.2882 28.5991 31.6267 17.61 31.1983 7.77565C32.558 6.78849 33.75 5.55919 34.7 4.14364C33.452 4.70241 32.0924 5.07492 30.6768 5.24255C32.1296 4.38577 33.2285 3.00747 33.75 1.36841C32.3904 2.16932 30.9003 2.74671 29.2985 3.06335C28.0133 1.70368 26.2066 0.846893 24.1764 0.846893C19.6504 0.846893 16.335 5.0563 17.3594 9.45196C11.5482 9.15395 6.37029 6.37872 2.92454 2.13207C1.0806 5.2798 1.97463 9.39608 5.08512 11.4822C3.93033 11.4449 2.85004 11.1283 1.91876 10.6067C1.84425 13.8476 4.17246 16.8836 7.54371 17.5541C6.55655 17.8149 5.47626 17.8894 4.37735 17.6659C5.27138 20.4411 7.86035 22.4713 10.915 22.5272C7.9721 24.8554 4.26559 25.8984 0.559082 25.4514Z" fill="white"/>
</svg>
